<svg xmlns="http://www.w3.org/2000/svg" xmlns:xlink="http://www.w3.org/1999/xlink" width="180" zoomAndPan="magnify" viewBox="0 0 135 30.000001" height="40" preserveAspectRatio="xMidYMid meet" version="1.0"><defs><g/></defs><g fill="#ff914d" fill-opacity="0.4"><g transform="translate(29.531821, 24.096327)"><g><path d="M 20.191406 -10.679688 L 11.660156 -10.679688 L 11.660156 -7.179688 L 16.1875 -7.179688 C 15.480469 -4.917969 13.511719 -3.269531 10.953125 -3.269531 C 7.730469 -3.269531 5.441406 -5.898438 5.441406 -9.125 C 5.441406 -12.347656 7.730469 -14.976562 10.953125 -14.976562 C 12.097656 -14.976562 13.125 -14.65625 13.949219 -14.085938 L 16.507812 -16.644531 C 14.953125 -17.789062 13.035156 -18.476562 10.953125 -18.476562 C 5.785156 -18.476562 1.601562 -14.292969 1.601562 -9.125 C 1.601562 -3.957031 5.785156 0.230469 10.953125 0.230469 C 16.121094 0.230469 20.304688 -3.957031 20.304688 -9.125 C 20.304688 -9.648438 20.257812 -10.175781 20.191406 -10.679688 Z M 20.191406 -10.679688 "/></g></g></g><g fill="#877eff" fill-opacity="1"><g transform="translate(30.866059, 23.584161)"><g><path d="M 20.191406 -10.679688 L 11.660156 -10.679688 L 11.660156 -7.179688 L 16.1875 -7.179688 C 15.480469 -4.917969 13.511719 -3.269531 10.953125 -3.269531 C 7.730469 -3.269531 5.441406 -5.898438 5.441406 -9.125 C 5.441406 -12.347656 7.730469 -14.976562 10.953125 -14.976562 C 12.097656 -14.976562 13.125 -14.65625 13.949219 -14.085938 L 16.507812 -16.644531 C 14.953125 -17.789062 13.035156 -18.476562 10.953125 -18.476562 C 5.785156 -18.476562 1.601562 -14.292969 1.601562 -9.125 C 1.601562 -3.957031 5.785156 0.230469 10.953125 0.230469 C 16.121094 0.230469 20.304688 -3.957031 20.304688 -9.125 C 20.304688 -9.648438 20.257812 -10.175781 20.191406 -10.679688 Z M 20.191406 -10.679688 "/></g></g></g><g fill="#ff914d" fill-opacity="0.4"><g transform="translate(70.009093, 24.096327)"><g><path d="M 12.460938 -18.15625 L 12.460938 -9.808594 L 5.03125 -9.808594 L 5.03125 -18.15625 L 1.601562 -18.15625 L 1.601562 0.160156 L 5.03125 0.160156 L 5.03125 -6.402344 L 12.460938 -6.402344 L 12.460938 0.160156 L 15.867188 0.160156 L 15.867188 -18.15625 Z M 12.460938 -18.15625 "/></g></g></g><g fill="#877eff" fill-opacity="1"><g transform="translate(71.343329, 23.584161)"><g><path d="M 12.460938 -18.15625 L 12.460938 -9.808594 L 5.03125 -9.808594 L 5.03125 -18.15625 L 1.601562 -18.15625 L 1.601562 0.160156 L 5.03125 0.160156 L 5.03125 -6.402344 L 12.460938 -6.402344 L 12.460938 0.160156 L 15.867188 0.160156 L 15.867188 -18.15625 Z M 12.460938 -18.15625 "/></g></g></g><g fill="#877eff" fill-opacity="0.302"><g transform="translate(88.686079, 22.920594)"><g><path d="M 6.214844 -9.382812 L 6.214844 -3.25 C 6.214844 -2.300781 5.453125 -1.535156 4.515625 -1.535156 L 4.28125 -1.535156 C 3.34375 -1.535156 2.582031 -2.300781 2.582031 -3.25 L 2.582031 -9.382812 L 0.820312 -9.382812 L 0.820312 -3.25 C 0.820312 -1.347656 2.382812 0.210938 4.28125 0.210938 L 4.515625 0.210938 C 6.414062 0.210938 7.964844 -1.347656 7.964844 -3.25 L 7.964844 -9.382812 Z M 6.214844 -9.382812 "/></g></g></g><g fill="#877eff" fill-opacity="0.302"><g transform="translate(97.463039, 22.920594)"><g><path d="M 8.140625 -6.695312 C 8.140625 -8.1875 7.261719 -9.382812 4.855469 -9.382812 L 0.820312 -9.382812 L 0.820312 0 L 4.855469 0 C 7.332031 0 8.140625 -1.59375 8.140625 -3.074219 C 8.140625 -3.765625 7.953125 -4.398438 7.507812 -4.878906 C 7.964844 -5.347656 8.140625 -5.992188 8.140625 -6.695312 Z M 2.582031 -7.636719 L 5.464844 -7.636719 C 6.015625 -7.636719 6.390625 -7.15625 6.390625 -6.695312 C 6.390625 -6.296875 6.074219 -5.757812 5.464844 -5.757812 L 2.582031 -5.757812 Z M 5.289062 -1.757812 L 2.582031 -1.757812 L 2.582031 -4.011719 L 5.289062 -4.011719 C 5.828125 -4.011719 6.390625 -3.660156 6.390625 -2.886719 C 6.390625 -2.109375 5.804688 -1.757812 5.289062 -1.757812 Z M 5.289062 -1.757812 "/></g></g></g><g fill="#877eff" fill-opacity="0.502"><g transform="translate(88.167482, 22.401992)"><g><path d="M 6.214844 -9.382812 L 6.214844 -3.25 C 6.214844 -2.300781 5.453125 -1.535156 4.515625 -1.535156 L 4.28125 -1.535156 C 3.34375 -1.535156 2.582031 -2.300781 2.582031 -3.25 L 2.582031 -9.382812 L 0.820312 -9.382812 L 0.820312 -3.25 C 0.820312 -1.347656 2.382812 0.210938 4.28125 0.210938 L 4.515625 0.210938 C 6.414062 0.210938 7.964844 -1.347656 7.964844 -3.25 L 7.964844 -9.382812 Z M 6.214844 -9.382812 "/></g></g></g><g fill="#877eff" fill-opacity="0.502"><g transform="translate(96.944441, 22.401992)"><g><path d="M 8.140625 -6.695312 C 8.140625 -8.1875 7.261719 -9.382812 4.855469 -9.382812 L 0.820312 -9.382812 L 0.820312 0 L 4.855469 0 C 7.332031 0 8.140625 -1.59375 8.140625 -3.074219 C 8.140625 -3.765625 7.953125 -4.398438 7.507812 -4.878906 C 7.964844 -5.347656 8.140625 -5.992188 8.140625 -6.695312 Z M 2.582031 -7.636719 L 5.464844 -7.636719 C 6.015625 -7.636719 6.390625 -7.15625 6.390625 -6.695312 C 6.390625 -6.296875 6.074219 -5.757812 5.464844 -5.757812 L 2.582031 -5.757812 Z M 5.289062 -1.757812 L 2.582031 -1.757812 L 2.582031 -4.011719 L 5.289062 -4.011719 C 5.828125 -4.011719 6.390625 -3.660156 6.390625 -2.886719 C 6.390625 -2.109375 5.804688 -1.757812 5.289062 -1.757812 Z M 5.289062 -1.757812 "/></g></g></g><g fill="#877eff" fill-opacity="1"><g transform="translate(87.648877, 21.883389)"><g><path d="M 6.214844 -9.382812 L 6.214844 -3.25 C 6.214844 -2.300781 5.453125 -1.535156 4.515625 -1.535156 L 4.28125 -1.535156 C 3.34375 -1.535156 2.582031 -2.300781 2.582031 -3.25 L 2.582031 -9.382812 L 0.820312 -9.382812 L 0.820312 -3.25 C 0.820312 -1.347656 2.382812 0.210938 4.28125 0.210938 L 4.515625 0.210938 C 6.414062 0.210938 7.964844 -1.347656 7.964844 -3.25 L 7.964844 -9.382812 Z M 6.214844 -9.382812 "/></g></g></g><g fill="#877eff" fill-opacity="1"><g transform="translate(96.425837, 21.883389)"><g><path d="M 8.140625 -6.695312 C 8.140625 -8.1875 7.261719 -9.382812 4.855469 -9.382812 L 0.820312 -9.382812 L 0.820312 0 L 4.855469 0 C 7.332031 0 8.140625 -1.59375 8.140625 -3.074219 C 8.140625 -3.765625 7.953125 -4.398438 7.507812 -4.878906 C 7.964844 -5.347656 8.140625 -5.992188 8.140625 -6.695312 Z M 2.582031 -7.636719 L 5.464844 -7.636719 C 6.015625 -7.636719 6.390625 -7.15625 6.390625 -6.695312 C 6.390625 -6.296875 6.074219 -5.757812 5.464844 -5.757812 L 2.582031 -5.757812 Z M 5.289062 -1.757812 L 2.582031 -1.757812 L 2.582031 -4.011719 L 5.289062 -4.011719 C 5.828125 -4.011719 6.390625 -3.660156 6.390625 -2.886719 C 6.390625 -2.109375 5.804688 -1.757812 5.289062 -1.757812 Z M 5.289062 -1.757812 "/></g></g></g><g fill="#877eff" fill-opacity="0.302"><g transform="translate(51.198085, 22.920594)"><g><path d="M 6.355469 0 L 8.1875 0 L 5.429688 -9.359375 L 5.429688 -9.382812 L 3.589844 -9.382812 L 0.820312 0 L 2.664062 0 L 3.355469 -2.335938 L 5.664062 -2.335938 Z M 3.871094 -4.082031 L 4.515625 -6.261719 L 5.148438 -4.082031 Z M 3.871094 -4.082031 "/></g></g></g><g fill="#877eff" fill-opacity="0.302"><g transform="translate(60.197685, 22.920594)"><g><path d="M 8.140625 -6.695312 C 8.140625 -8.1875 7.261719 -9.382812 4.855469 -9.382812 L 0.820312 -9.382812 L 0.820312 0 L 4.855469 0 C 7.332031 0 8.140625 -1.59375 8.140625 -3.074219 C 8.140625 -3.765625 7.953125 -4.398438 7.507812 -4.878906 C 7.964844 -5.347656 8.140625 -5.992188 8.140625 -6.695312 Z M 2.582031 -7.636719 L 5.464844 -7.636719 C 6.015625 -7.636719 6.390625 -7.15625 6.390625 -6.695312 C 6.390625 -6.296875 6.074219 -5.757812 5.464844 -5.757812 L 2.582031 -5.757812 Z M 5.289062 -1.757812 L 2.582031 -1.757812 L 2.582031 -4.011719 L 5.289062 -4.011719 C 5.828125 -4.011719 6.390625 -3.660156 6.390625 -2.886719 C 6.390625 -2.109375 5.804688 -1.757812 5.289062 -1.757812 Z M 5.289062 -1.757812 "/></g></g></g><g fill="#877eff" fill-opacity="0.502"><g transform="translate(50.679481, 22.401992)"><g><path d="M 6.355469 0 L 8.1875 0 L 5.429688 -9.359375 L 5.429688 -9.382812 L 3.589844 -9.382812 L 0.820312 0 L 2.664062 0 L 3.355469 -2.335938 L 5.664062 -2.335938 Z M 3.871094 -4.082031 L 4.515625 -6.261719 L 5.148438 -4.082031 Z M 3.871094 -4.082031 "/></g></g></g><g fill="#877eff" fill-opacity="0.502"><g transform="translate(59.679081, 22.401992)"><g><path d="M 8.140625 -6.695312 C 8.140625 -8.1875 7.261719 -9.382812 4.855469 -9.382812 L 0.820312 -9.382812 L 0.820312 0 L 4.855469 0 C 7.332031 0 8.140625 -1.59375 8.140625 -3.074219 C 8.140625 -3.765625 7.953125 -4.398438 7.507812 -4.878906 C 7.964844 -5.347656 8.140625 -5.992188 8.140625 -6.695312 Z M 2.582031 -7.636719 L 5.464844 -7.636719 C 6.015625 -7.636719 6.390625 -7.15625 6.390625 -6.695312 C 6.390625 -6.296875 6.074219 -5.757812 5.464844 -5.757812 L 2.582031 -5.757812 Z M 5.289062 -1.757812 L 2.582031 -1.757812 L 2.582031 -4.011719 L 5.289062 -4.011719 C 5.828125 -4.011719 6.390625 -3.660156 6.390625 -2.886719 C 6.390625 -2.109375 5.804688 -1.757812 5.289062 -1.757812 Z M 5.289062 -1.757812 "/></g></g></g><g fill="#877eff" fill-opacity="1"><g transform="translate(50.160879, 21.883389)"><g><path d="M 6.355469 0 L 8.1875 0 L 5.429688 -9.359375 L 5.429688 -9.382812 L 3.589844 -9.382812 L 0.820312 0 L 2.664062 0 L 3.355469 -2.335938 L 5.664062 -2.335938 Z M 3.871094 -4.082031 L 4.515625 -6.261719 L 5.148438 -4.082031 Z M 3.871094 -4.082031 "/></g></g></g><g fill="#877eff" fill-opacity="1"><g transform="translate(59.160479, 21.883389)"><g><path d="M 8.140625 -6.695312 C 8.140625 -8.1875 7.261719 -9.382812 4.855469 -9.382812 L 0.820312 -9.382812 L 0.820312 0 L 4.855469 0 C 7.332031 0 8.140625 -1.59375 8.140625 -3.074219 C 8.140625 -3.765625 7.953125 -4.398438 7.507812 -4.878906 C 7.964844 -5.347656 8.140625 -5.992188 8.140625 -6.695312 Z M 2.582031 -7.636719 L 5.464844 -7.636719 C 6.015625 -7.636719 6.390625 -7.15625 6.390625 -6.695312 C 6.390625 -6.296875 6.074219 -5.757812 5.464844 -5.757812 L 2.582031 -5.757812 Z M 5.289062 -1.757812 L 2.582031 -1.757812 L 2.582031 -4.011719 L 5.289062 -4.011719 C 5.828125 -4.011719 6.390625 -3.660156 6.390625 -2.886719 C 6.390625 -2.109375 5.804688 -1.757812 5.289062 -1.757812 Z M 5.289062 -1.757812 "/></g></g></g></svg>