<svg xmlns="http://www.w3.org/2000/svg" xmlns:xlink="http://www.w3.org/1999/xlink" width="180" zoomAndPan="magnify" viewBox="0 0 135 30.000001" height="40" preserveAspectRatio="xMidYMid meet" version="1.0"><defs><g/><clipPath id="87ab4c94b0"><path d="M 20 4.191406 L 44 4.191406 L 44 12 L 20 12 Z M 20 4.191406 " clip-rule="nonzero"/></clipPath><clipPath id="151e1283cd"><path d="M 20 4.191406 L 44 4.191406 L 44 11 L 20 11 Z M 20 4.191406 " clip-rule="nonzero"/></clipPath><clipPath id="8f446d64a4"><path d="M 23 4.191406 L 28 4.191406 L 28 6 L 23 6 Z M 23 4.191406 " clip-rule="nonzero"/></clipPath><clipPath id="6da7513ff8"><path d="M 40 21 L 42 21 L 42 24.511719 L 40 24.511719 Z M 40 21 " clip-rule="nonzero"/></clipPath><clipPath id="130c8b4bd0"><path d="M 37 21 L 38 21 L 38 24.511719 L 37 24.511719 Z M 37 21 " clip-rule="nonzero"/></clipPath><clipPath id="14fcb65ddd"><path d="M 25 21 L 27 21 L 27 24.511719 L 25 24.511719 Z M 25 21 " clip-rule="nonzero"/></clipPath><clipPath id="79d5eaac8d"><path d="M 26 21 L 27 21 L 27 24.511719 L 26 24.511719 Z M 26 21 " clip-rule="nonzero"/></clipPath><clipPath id="55555a988d"><path d="M 22 21 L 24 21 L 24 24.511719 L 22 24.511719 Z M 22 21 " clip-rule="nonzero"/></clipPath><clipPath id="b7f8dfbaca"><path d="M 18.875 23 L 45 23 L 45 24.511719 L 18.875 24.511719 Z M 18.875 23 " clip-rule="nonzero"/></clipPath><clipPath id="3cbda064de"><path d="M 18.875 24 L 45 24 L 45 24.511719 L 18.875 24.511719 Z M 18.875 24 " clip-rule="nonzero"/></clipPath></defs><g fill="#3d9f35" fill-opacity="1"><g transform="translate(45.93134, 22.364697)"><g><path d="M 0.375 -6.265625 C 0.5 -6.265625 0.660156 -6.257812 0.859375 -6.25 C 1.054688 -6.25 1.253906 -6.25 1.453125 -6.25 C 1.734375 -6.25 2 -6.25 2.25 -6.25 C 2.5 -6.257812 2.679688 -6.265625 2.796875 -6.265625 C 3.273438 -6.265625 3.671875 -6.195312 3.984375 -6.0625 C 4.296875 -5.925781 4.53125 -5.738281 4.6875 -5.5 C 4.84375 -5.269531 4.921875 -5.007812 4.921875 -4.71875 C 4.921875 -4.539062 4.882812 -4.351562 4.8125 -4.15625 C 4.75 -3.957031 4.628906 -3.769531 4.453125 -3.59375 C 4.273438 -3.414062 4.035156 -3.269531 3.734375 -3.15625 C 3.429688 -3.039062 3.050781 -2.984375 2.59375 -2.984375 L 1.75 -2.984375 L 1.75 -3.15625 L 2.5 -3.15625 C 2.925781 -3.15625 3.25 -3.21875 3.46875 -3.34375 C 3.6875 -3.476562 3.835938 -3.65625 3.921875 -3.875 C 4.003906 -4.101562 4.046875 -4.351562 4.046875 -4.625 C 4.046875 -5.09375 3.929688 -5.453125 3.703125 -5.703125 C 3.484375 -5.960938 3.101562 -6.09375 2.5625 -6.09375 C 2.289062 -6.09375 2.113281 -6.039062 2.03125 -5.9375 C 1.945312 -5.84375 1.90625 -5.640625 1.90625 -5.328125 L 1.90625 -0.9375 C 1.90625 -0.726562 1.921875 -0.566406 1.953125 -0.453125 C 1.992188 -0.347656 2.066406 -0.273438 2.171875 -0.234375 C 2.273438 -0.203125 2.425781 -0.179688 2.625 -0.171875 L 2.625 0 C 2.488281 -0.0078125 2.316406 -0.015625 2.109375 -0.015625 C 1.910156 -0.0234375 1.707031 -0.03125 1.5 -0.03125 C 1.269531 -0.03125 1.054688 -0.0234375 0.859375 -0.015625 C 0.660156 -0.015625 0.5 -0.0078125 0.375 0 L 0.375 -0.171875 C 0.570312 -0.179688 0.722656 -0.203125 0.828125 -0.234375 C 0.929688 -0.273438 1 -0.347656 1.03125 -0.453125 C 1.070312 -0.566406 1.09375 -0.726562 1.09375 -0.9375 L 1.09375 -5.328125 C 1.09375 -5.546875 1.070312 -5.707031 1.03125 -5.8125 C 1 -5.914062 0.929688 -5.988281 0.828125 -6.03125 C 0.722656 -6.070312 0.570312 -6.09375 0.375 -6.09375 Z M 1.78125 -3.125 C 2.101562 -3.113281 2.351562 -3.097656 2.53125 -3.078125 C 2.71875 -3.066406 2.867188 -3.054688 2.984375 -3.046875 C 3.097656 -3.035156 3.207031 -3.019531 3.3125 -3 C 3.707031 -2.9375 3.992188 -2.816406 4.171875 -2.640625 C 4.347656 -2.472656 4.472656 -2.203125 4.546875 -1.828125 L 4.78125 -0.9375 C 4.832031 -0.675781 4.890625 -0.484375 4.953125 -0.359375 C 5.015625 -0.242188 5.113281 -0.191406 5.25 -0.203125 C 5.34375 -0.210938 5.421875 -0.242188 5.484375 -0.296875 C 5.554688 -0.359375 5.632812 -0.441406 5.71875 -0.546875 L 5.84375 -0.4375 C 5.71875 -0.257812 5.585938 -0.117188 5.453125 -0.015625 C 5.328125 0.078125 5.144531 0.125 4.90625 0.125 C 4.6875 0.125 4.492188 0.0625 4.328125 -0.0625 C 4.160156 -0.195312 4.035156 -0.453125 3.953125 -0.828125 L 3.75 -1.71875 C 3.695312 -1.96875 3.632812 -2.1875 3.5625 -2.375 C 3.5 -2.5625 3.40625 -2.707031 3.28125 -2.8125 C 3.164062 -2.925781 2.988281 -2.984375 2.75 -2.984375 L 1.796875 -2.984375 Z M 1.78125 -3.125 "/></g></g></g><g fill="#3d9f35" fill-opacity="1"><g transform="translate(51.67, 22.364697)"><g><path d="M 4.796875 -6.265625 C 4.765625 -6.066406 4.742188 -5.867188 4.734375 -5.671875 C 4.734375 -5.472656 4.734375 -5.328125 4.734375 -5.234375 C 4.734375 -5.117188 4.734375 -5.015625 4.734375 -4.921875 C 4.742188 -4.828125 4.75 -4.742188 4.75 -4.671875 L 4.546875 -4.671875 C 4.515625 -5.023438 4.46875 -5.300781 4.40625 -5.5 C 4.34375 -5.707031 4.234375 -5.851562 4.078125 -5.9375 C 3.921875 -6.019531 3.679688 -6.0625 3.359375 -6.0625 L 2.625 -6.0625 C 2.425781 -6.0625 2.273438 -6.046875 2.171875 -6.015625 C 2.066406 -5.984375 1.992188 -5.914062 1.953125 -5.8125 C 1.921875 -5.707031 1.90625 -5.546875 1.90625 -5.328125 L 1.90625 -0.9375 C 1.90625 -0.726562 1.921875 -0.566406 1.953125 -0.453125 C 1.992188 -0.347656 2.066406 -0.28125 2.171875 -0.25 C 2.273438 -0.21875 2.425781 -0.203125 2.625 -0.203125 L 3.28125 -0.203125 C 3.65625 -0.203125 3.9375 -0.25 4.125 -0.34375 C 4.3125 -0.445312 4.445312 -0.613281 4.53125 -0.84375 C 4.625 -1.070312 4.691406 -1.378906 4.734375 -1.765625 L 4.9375 -1.765625 C 4.914062 -1.609375 4.90625 -1.398438 4.90625 -1.140625 C 4.90625 -1.023438 4.910156 -0.863281 4.921875 -0.65625 C 4.929688 -0.445312 4.945312 -0.226562 4.96875 0 C 4.664062 -0.0078125 4.328125 -0.015625 3.953125 -0.015625 C 3.578125 -0.0234375 3.238281 -0.03125 2.9375 -0.03125 C 2.8125 -0.03125 2.644531 -0.03125 2.4375 -0.03125 C 2.238281 -0.03125 2.019531 -0.0234375 1.78125 -0.015625 C 1.539062 -0.015625 1.300781 -0.015625 1.0625 -0.015625 C 0.820312 -0.015625 0.59375 -0.0078125 0.375 0 L 0.375 -0.171875 C 0.570312 -0.179688 0.722656 -0.203125 0.828125 -0.234375 C 0.929688 -0.273438 1 -0.347656 1.03125 -0.453125 C 1.070312 -0.566406 1.09375 -0.726562 1.09375 -0.9375 L 1.09375 -5.328125 C 1.09375 -5.546875 1.070312 -5.707031 1.03125 -5.8125 C 1 -5.914062 0.929688 -5.988281 0.828125 -6.03125 C 0.722656 -6.070312 0.570312 -6.09375 0.375 -6.09375 L 0.375 -6.265625 C 0.59375 -6.265625 0.820312 -6.257812 1.0625 -6.25 C 1.300781 -6.25 1.539062 -6.25 1.78125 -6.25 C 2.019531 -6.25 2.238281 -6.25 2.4375 -6.25 C 2.644531 -6.25 2.8125 -6.25 2.9375 -6.25 C 3.207031 -6.25 3.515625 -6.25 3.859375 -6.25 C 4.210938 -6.25 4.523438 -6.253906 4.796875 -6.265625 Z M 3.265625 -3.25 C 3.265625 -3.25 3.265625 -3.21875 3.265625 -3.15625 C 3.265625 -3.09375 3.265625 -3.0625 3.265625 -3.0625 L 1.640625 -3.0625 C 1.640625 -3.0625 1.640625 -3.09375 1.640625 -3.15625 C 1.640625 -3.21875 1.640625 -3.25 1.640625 -3.25 Z M 3.53125 -4.40625 C 3.5 -4.070312 3.484375 -3.816406 3.484375 -3.640625 C 3.492188 -3.460938 3.5 -3.300781 3.5 -3.15625 C 3.5 -3.007812 3.5 -2.847656 3.5 -2.671875 C 3.507812 -2.492188 3.523438 -2.234375 3.546875 -1.890625 L 3.34375 -1.890625 C 3.320312 -2.078125 3.296875 -2.257812 3.265625 -2.4375 C 3.234375 -2.625 3.160156 -2.773438 3.046875 -2.890625 C 2.941406 -3.003906 2.757812 -3.0625 2.5 -3.0625 L 2.5 -3.25 C 2.695312 -3.25 2.84375 -3.285156 2.9375 -3.359375 C 3.039062 -3.441406 3.117188 -3.546875 3.171875 -3.671875 C 3.222656 -3.796875 3.253906 -3.921875 3.265625 -4.046875 C 3.285156 -4.179688 3.304688 -4.300781 3.328125 -4.40625 Z M 3.53125 -4.40625 "/></g></g></g><g fill="#3d9f35" fill-opacity="1"><g transform="translate(57.063275, 22.364697)"><g><path d="M 5.9375 -6.265625 L 5.9375 -6.09375 C 5.738281 -6.09375 5.585938 -6.0625 5.484375 -6 C 5.378906 -5.945312 5.304688 -5.863281 5.265625 -5.75 C 5.234375 -5.632812 5.21875 -5.46875 5.21875 -5.25 L 5.21875 0.046875 C 5.1875 0.046875 5.148438 0.046875 5.109375 0.046875 C 5.078125 0.046875 5.046875 0.046875 5.015625 0.046875 L 1.296875 -5.703125 L 1.296875 -1.03125 C 1.296875 -0.8125 1.3125 -0.640625 1.34375 -0.515625 C 1.382812 -0.398438 1.460938 -0.316406 1.578125 -0.265625 C 1.691406 -0.210938 1.863281 -0.179688 2.09375 -0.171875 L 2.09375 0 C 1.988281 -0.0078125 1.847656 -0.015625 1.671875 -0.015625 C 1.503906 -0.0234375 1.347656 -0.03125 1.203125 -0.03125 C 1.046875 -0.03125 0.890625 -0.0234375 0.734375 -0.015625 C 0.585938 -0.015625 0.46875 -0.0078125 0.375 0 L 0.375 -0.171875 C 0.570312 -0.179688 0.722656 -0.210938 0.828125 -0.265625 C 0.929688 -0.316406 1 -0.398438 1.03125 -0.515625 C 1.070312 -0.640625 1.09375 -0.8125 1.09375 -1.03125 L 1.09375 -5.328125 C 1.09375 -5.546875 1.070312 -5.707031 1.03125 -5.8125 C 1 -5.914062 0.929688 -5.988281 0.828125 -6.03125 C 0.722656 -6.070312 0.570312 -6.09375 0.375 -6.09375 L 0.375 -6.265625 C 0.46875 -6.265625 0.585938 -6.257812 0.734375 -6.25 C 0.890625 -6.25 1.046875 -6.25 1.203125 -6.25 C 1.328125 -6.25 1.445312 -6.25 1.5625 -6.25 C 1.6875 -6.257812 1.796875 -6.265625 1.890625 -6.265625 L 5.015625 -1.453125 L 5.015625 -5.25 C 5.015625 -5.46875 4.992188 -5.632812 4.953125 -5.75 C 4.921875 -5.863281 4.84375 -5.945312 4.71875 -6 C 4.601562 -6.0625 4.429688 -6.09375 4.203125 -6.09375 L 4.203125 -6.265625 C 4.316406 -6.265625 4.457031 -6.257812 4.625 -6.25 C 4.800781 -6.25 4.960938 -6.25 5.109375 -6.25 C 5.265625 -6.25 5.414062 -6.25 5.5625 -6.25 C 5.71875 -6.257812 5.84375 -6.265625 5.9375 -6.265625 Z M 5.9375 -6.265625 "/></g></g></g><g fill="#3d9f35" fill-opacity="1"><g transform="translate(63.315577, 22.364697)"><g><path d="M 5.25 -6.265625 C 5.21875 -6.046875 5.195312 -5.832031 5.1875 -5.625 C 5.1875 -5.414062 5.1875 -5.253906 5.1875 -5.140625 C 5.1875 -4.992188 5.1875 -4.859375 5.1875 -4.734375 C 5.195312 -4.609375 5.203125 -4.5 5.203125 -4.40625 L 5 -4.40625 C 4.957031 -4.820312 4.898438 -5.148438 4.828125 -5.390625 C 4.765625 -5.628906 4.644531 -5.800781 4.46875 -5.90625 C 4.289062 -6.007812 4.015625 -6.0625 3.640625 -6.0625 L 3.15625 -6.0625 L 3.15625 -1.03125 C 3.15625 -0.789062 3.175781 -0.609375 3.21875 -0.484375 C 3.269531 -0.367188 3.359375 -0.289062 3.484375 -0.25 C 3.617188 -0.207031 3.8125 -0.179688 4.0625 -0.171875 L 4.0625 0 C 3.90625 -0.0078125 3.707031 -0.015625 3.46875 -0.015625 C 3.238281 -0.0234375 3 -0.03125 2.75 -0.03125 C 2.488281 -0.03125 2.238281 -0.0234375 2 -0.015625 C 1.769531 -0.015625 1.582031 -0.0078125 1.4375 0 L 1.4375 -0.171875 C 1.6875 -0.179688 1.875 -0.207031 2 -0.25 C 2.132812 -0.289062 2.222656 -0.367188 2.265625 -0.484375 C 2.316406 -0.609375 2.34375 -0.789062 2.34375 -1.03125 L 2.34375 -6.0625 L 1.859375 -6.0625 C 1.492188 -6.0625 1.21875 -6.007812 1.03125 -5.90625 C 0.851562 -5.800781 0.726562 -5.628906 0.65625 -5.390625 C 0.59375 -5.148438 0.539062 -4.820312 0.5 -4.40625 L 0.296875 -4.40625 C 0.304688 -4.5 0.3125 -4.609375 0.3125 -4.734375 C 0.3125 -4.859375 0.3125 -4.992188 0.3125 -5.140625 C 0.3125 -5.253906 0.304688 -5.414062 0.296875 -5.625 C 0.296875 -5.832031 0.28125 -6.046875 0.25 -6.265625 C 0.5 -6.265625 0.769531 -6.257812 1.0625 -6.25 C 1.351562 -6.25 1.644531 -6.25 1.9375 -6.25 C 2.238281 -6.25 2.507812 -6.25 2.75 -6.25 C 3 -6.25 3.269531 -6.25 3.5625 -6.25 C 3.851562 -6.25 4.144531 -6.25 4.4375 -6.25 C 4.726562 -6.257812 5 -6.265625 5.25 -6.265625 Z M 5.25 -6.265625 "/></g></g></g><g fill="#3d9f35" fill-opacity="1"><g transform="translate(68.815119, 22.364697)"><g><path d="M 3.8125 -2.640625 L 3.8125 -2.125 L 0.609375 -2.125 L 0.609375 -2.640625 Z M 3.8125 -2.640625 "/></g></g></g><g fill="#3d9f35" fill-opacity="1"><g transform="translate(73.234237, 22.364697)"><g><path d="M 3.28125 -6.390625 C 3.84375 -6.390625 4.332031 -6.265625 4.75 -6.015625 C 5.175781 -5.765625 5.503906 -5.398438 5.734375 -4.921875 C 5.972656 -4.441406 6.09375 -3.863281 6.09375 -3.1875 C 6.09375 -2.53125 5.972656 -1.953125 5.734375 -1.453125 C 5.492188 -0.953125 5.160156 -0.5625 4.734375 -0.28125 C 4.316406 -0.0078125 3.832031 0.125 3.28125 0.125 C 2.71875 0.125 2.222656 0 1.796875 -0.25 C 1.378906 -0.507812 1.050781 -0.878906 0.8125 -1.359375 C 0.582031 -1.835938 0.46875 -2.410156 0.46875 -3.078125 C 0.46875 -3.742188 0.585938 -4.320312 0.828125 -4.8125 C 1.078125 -5.3125 1.410156 -5.695312 1.828125 -5.96875 C 2.253906 -6.25 2.738281 -6.390625 3.28125 -6.390625 Z M 3.25 -6.234375 C 2.863281 -6.234375 2.53125 -6.097656 2.25 -5.828125 C 1.96875 -5.566406 1.75 -5.203125 1.59375 -4.734375 C 1.4375 -4.273438 1.359375 -3.738281 1.359375 -3.125 C 1.359375 -2.488281 1.441406 -1.9375 1.609375 -1.46875 C 1.785156 -1.007812 2.019531 -0.65625 2.3125 -0.40625 C 2.613281 -0.15625 2.945312 -0.03125 3.3125 -0.03125 C 3.695312 -0.03125 4.03125 -0.160156 4.3125 -0.421875 C 4.59375 -0.691406 4.8125 -1.0625 4.96875 -1.53125 C 5.125 -2 5.203125 -2.539062 5.203125 -3.15625 C 5.203125 -3.789062 5.113281 -4.335938 4.9375 -4.796875 C 4.769531 -5.253906 4.535156 -5.609375 4.234375 -5.859375 C 3.941406 -6.109375 3.613281 -6.234375 3.25 -6.234375 Z M 3.25 -6.234375 "/></g></g></g><g fill="#3d9f35" fill-opacity="1"><g transform="translate(79.796499, 22.364697)"><g><path d="M 5.640625 -6.265625 L 5.640625 -6.09375 C 5.523438 -6.070312 5.40625 -6.003906 5.28125 -5.890625 C 5.15625 -5.773438 5.039062 -5.585938 4.9375 -5.328125 L 2.859375 0.046875 C 2.847656 0.046875 2.835938 0.046875 2.828125 0.046875 C 2.816406 0.046875 2.804688 0.046875 2.796875 0.046875 C 2.773438 0.046875 2.757812 0.046875 2.75 0.046875 C 2.738281 0.046875 2.726562 0.046875 2.71875 0.046875 L 0.5625 -5.53125 C 0.46875 -5.75 0.363281 -5.894531 0.25 -5.96875 C 0.144531 -6.050781 0.046875 -6.09375 -0.046875 -6.09375 L -0.046875 -6.265625 C 0.0664062 -6.265625 0.207031 -6.257812 0.375 -6.25 C 0.550781 -6.25 0.722656 -6.25 0.890625 -6.25 C 1.117188 -6.25 1.332031 -6.25 1.53125 -6.25 C 1.738281 -6.257812 1.90625 -6.265625 2.03125 -6.265625 L 2.03125 -6.09375 C 1.832031 -6.09375 1.679688 -6.070312 1.578125 -6.03125 C 1.472656 -5.988281 1.414062 -5.914062 1.40625 -5.8125 C 1.394531 -5.707031 1.425781 -5.550781 1.5 -5.34375 L 3.15625 -0.984375 L 3.015625 -0.828125 L 4.546875 -4.84375 C 4.671875 -5.15625 4.726562 -5.398438 4.71875 -5.578125 C 4.71875 -5.765625 4.648438 -5.894531 4.515625 -5.96875 C 4.390625 -6.050781 4.203125 -6.09375 3.953125 -6.09375 L 3.953125 -6.265625 C 4.128906 -6.265625 4.304688 -6.257812 4.484375 -6.25 C 4.660156 -6.25 4.828125 -6.25 4.984375 -6.25 C 5.128906 -6.25 5.253906 -6.25 5.359375 -6.25 C 5.460938 -6.257812 5.554688 -6.265625 5.640625 -6.265625 Z M 5.640625 -6.265625 "/></g></g></g><g fill="#3d9f35" fill-opacity="1"><g transform="translate(85.375744, 22.364697)"><g><path d="M 2.859375 -6.3125 L 5.015625 -0.75 C 5.109375 -0.519531 5.210938 -0.367188 5.328125 -0.296875 C 5.441406 -0.222656 5.546875 -0.179688 5.640625 -0.171875 L 5.640625 0 C 5.515625 -0.0078125 5.363281 -0.015625 5.1875 -0.015625 C 5.019531 -0.0234375 4.851562 -0.03125 4.6875 -0.03125 C 4.457031 -0.03125 4.238281 -0.0234375 4.03125 -0.015625 C 3.832031 -0.015625 3.671875 -0.0078125 3.546875 0 L 3.546875 -0.171875 C 3.847656 -0.179688 4.039062 -0.234375 4.125 -0.328125 C 4.207031 -0.421875 4.191406 -0.617188 4.078125 -0.921875 L 2.421875 -5.328125 L 2.5625 -5.4375 L 1.03125 -1.4375 C 0.9375 -1.195312 0.878906 -0.992188 0.859375 -0.828125 C 0.835938 -0.671875 0.851562 -0.546875 0.90625 -0.453125 C 0.957031 -0.359375 1.039062 -0.289062 1.15625 -0.25 C 1.28125 -0.207031 1.4375 -0.179688 1.625 -0.171875 L 1.625 0 C 1.457031 -0.0078125 1.28125 -0.015625 1.09375 -0.015625 C 0.914062 -0.0234375 0.753906 -0.03125 0.609375 -0.03125 C 0.453125 -0.03125 0.320312 -0.0234375 0.21875 -0.015625 C 0.125 -0.015625 0.03125 -0.0078125 -0.0625 0 L -0.0625 -0.171875 C 0.0507812 -0.203125 0.171875 -0.269531 0.296875 -0.375 C 0.421875 -0.488281 0.535156 -0.679688 0.640625 -0.953125 L 2.71875 -6.3125 C 2.738281 -6.3125 2.757812 -6.3125 2.78125 -6.3125 C 2.8125 -6.3125 2.835938 -6.3125 2.859375 -6.3125 Z M 3.9375 -2.546875 L 3.9375 -2.375 L 1.296875 -2.375 L 1.390625 -2.546875 Z M 3.9375 -2.546875 "/></g></g></g><g fill="#3d9f35" fill-opacity="1"><g transform="translate(90.954988, 22.364697)"><g><path d="M 5.25 -6.265625 C 5.21875 -6.046875 5.195312 -5.832031 5.1875 -5.625 C 5.1875 -5.414062 5.1875 -5.253906 5.1875 -5.140625 C 5.1875 -4.992188 5.1875 -4.859375 5.1875 -4.734375 C 5.195312 -4.609375 5.203125 -4.5 5.203125 -4.40625 L 5 -4.40625 C 4.957031 -4.820312 4.898438 -5.148438 4.828125 -5.390625 C 4.765625 -5.628906 4.644531 -5.800781 4.46875 -5.90625 C 4.289062 -6.007812 4.015625 -6.0625 3.640625 -6.0625 L 3.15625 -6.0625 L 3.15625 -1.03125 C 3.15625 -0.789062 3.175781 -0.609375 3.21875 -0.484375 C 3.269531 -0.367188 3.359375 -0.289062 3.484375 -0.25 C 3.617188 -0.207031 3.8125 -0.179688 4.0625 -0.171875 L 4.0625 0 C 3.90625 -0.0078125 3.707031 -0.015625 3.46875 -0.015625 C 3.238281 -0.0234375 3 -0.03125 2.75 -0.03125 C 2.488281 -0.03125 2.238281 -0.0234375 2 -0.015625 C 1.769531 -0.015625 1.582031 -0.0078125 1.4375 0 L 1.4375 -0.171875 C 1.6875 -0.179688 1.875 -0.207031 2 -0.25 C 2.132812 -0.289062 2.222656 -0.367188 2.265625 -0.484375 C 2.316406 -0.609375 2.34375 -0.789062 2.34375 -1.03125 L 2.34375 -6.0625 L 1.859375 -6.0625 C 1.492188 -6.0625 1.21875 -6.007812 1.03125 -5.90625 C 0.851562 -5.800781 0.726562 -5.628906 0.65625 -5.390625 C 0.59375 -5.148438 0.539062 -4.820312 0.5 -4.40625 L 0.296875 -4.40625 C 0.304688 -4.5 0.3125 -4.609375 0.3125 -4.734375 C 0.3125 -4.859375 0.3125 -4.992188 0.3125 -5.140625 C 0.3125 -5.253906 0.304688 -5.414062 0.296875 -5.625 C 0.296875 -5.832031 0.28125 -6.046875 0.25 -6.265625 C 0.5 -6.265625 0.769531 -6.257812 1.0625 -6.25 C 1.351562 -6.25 1.644531 -6.25 1.9375 -6.25 C 2.238281 -6.25 2.507812 -6.25 2.75 -6.25 C 3 -6.25 3.269531 -6.25 3.5625 -6.25 C 3.851562 -6.25 4.144531 -6.25 4.4375 -6.25 C 4.726562 -6.257812 5 -6.265625 5.25 -6.265625 Z M 5.25 -6.265625 "/></g></g></g><g fill="#3d9f35" fill-opacity="1"><g transform="translate(96.45453, 22.364697)"><g><path d="M 2.625 -6.265625 L 2.625 -6.09375 C 2.425781 -6.09375 2.273438 -6.070312 2.171875 -6.03125 C 2.066406 -5.988281 1.992188 -5.914062 1.953125 -5.8125 C 1.921875 -5.707031 1.90625 -5.546875 1.90625 -5.328125 L 1.90625 -0.9375 C 1.90625 -0.726562 1.921875 -0.566406 1.953125 -0.453125 C 1.992188 -0.347656 2.066406 -0.273438 2.171875 -0.234375 C 2.273438 -0.203125 2.425781 -0.179688 2.625 -0.171875 L 2.625 0 C 2.488281 -0.0078125 2.316406 -0.015625 2.109375 -0.015625 C 1.910156 -0.0234375 1.707031 -0.03125 1.5 -0.03125 C 1.269531 -0.03125 1.054688 -0.0234375 0.859375 -0.015625 C 0.660156 -0.015625 0.5 -0.0078125 0.375 0 L 0.375 -0.171875 C 0.570312 -0.179688 0.722656 -0.203125 0.828125 -0.234375 C 0.929688 -0.273438 1 -0.347656 1.03125 -0.453125 C 1.070312 -0.566406 1.09375 -0.726562 1.09375 -0.9375 L 1.09375 -5.328125 C 1.09375 -5.546875 1.070312 -5.707031 1.03125 -5.8125 C 1 -5.914062 0.929688 -5.988281 0.828125 -6.03125 C 0.722656 -6.070312 0.570312 -6.09375 0.375 -6.09375 L 0.375 -6.265625 C 0.5 -6.265625 0.660156 -6.257812 0.859375 -6.25 C 1.054688 -6.25 1.269531 -6.25 1.5 -6.25 C 1.707031 -6.25 1.910156 -6.25 2.109375 -6.25 C 2.316406 -6.257812 2.488281 -6.265625 2.625 -6.265625 Z M 2.625 -6.265625 "/></g></g></g><g fill="#3d9f35" fill-opacity="1"><g transform="translate(99.456701, 22.364697)"><g><path d="M 3.28125 -6.390625 C 3.84375 -6.390625 4.332031 -6.265625 4.75 -6.015625 C 5.175781 -5.765625 5.503906 -5.398438 5.734375 -4.921875 C 5.972656 -4.441406 6.09375 -3.863281 6.09375 -3.1875 C 6.09375 -2.53125 5.972656 -1.953125 5.734375 -1.453125 C 5.492188 -0.953125 5.160156 -0.5625 4.734375 -0.28125 C 4.316406 -0.0078125 3.832031 0.125 3.28125 0.125 C 2.71875 0.125 2.222656 0 1.796875 -0.25 C 1.378906 -0.507812 1.050781 -0.878906 0.8125 -1.359375 C 0.582031 -1.835938 0.46875 -2.410156 0.46875 -3.078125 C 0.46875 -3.742188 0.585938 -4.320312 0.828125 -4.8125 C 1.078125 -5.3125 1.410156 -5.695312 1.828125 -5.96875 C 2.253906 -6.25 2.738281 -6.390625 3.28125 -6.390625 Z M 3.25 -6.234375 C 2.863281 -6.234375 2.53125 -6.097656 2.25 -5.828125 C 1.96875 -5.566406 1.75 -5.203125 1.59375 -4.734375 C 1.4375 -4.273438 1.359375 -3.738281 1.359375 -3.125 C 1.359375 -2.488281 1.441406 -1.9375 1.609375 -1.46875 C 1.785156 -1.007812 2.019531 -0.65625 2.3125 -0.40625 C 2.613281 -0.15625 2.945312 -0.03125 3.3125 -0.03125 C 3.695312 -0.03125 4.03125 -0.160156 4.3125 -0.421875 C 4.59375 -0.691406 4.8125 -1.0625 4.96875 -1.53125 C 5.125 -2 5.203125 -2.539062 5.203125 -3.15625 C 5.203125 -3.789062 5.113281 -4.335938 4.9375 -4.796875 C 4.769531 -5.253906 4.535156 -5.609375 4.234375 -5.859375 C 3.941406 -6.109375 3.613281 -6.234375 3.25 -6.234375 Z M 3.25 -6.234375 "/></g></g></g><g fill="#3d9f35" fill-opacity="1"><g transform="translate(106.018963, 22.364697)"><g><path d="M 5.9375 -6.265625 L 5.9375 -6.09375 C 5.738281 -6.09375 5.585938 -6.0625 5.484375 -6 C 5.378906 -5.945312 5.304688 -5.863281 5.265625 -5.75 C 5.234375 -5.632812 5.21875 -5.46875 5.21875 -5.25 L 5.21875 0.046875 C 5.1875 0.046875 5.148438 0.046875 5.109375 0.046875 C 5.078125 0.046875 5.046875 0.046875 5.015625 0.046875 L 1.296875 -5.703125 L 1.296875 -1.03125 C 1.296875 -0.8125 1.3125 -0.640625 1.34375 -0.515625 C 1.382812 -0.398438 1.460938 -0.316406 1.578125 -0.265625 C 1.691406 -0.210938 1.863281 -0.179688 2.09375 -0.171875 L 2.09375 0 C 1.988281 -0.0078125 1.847656 -0.015625 1.671875 -0.015625 C 1.503906 -0.0234375 1.347656 -0.03125 1.203125 -0.03125 C 1.046875 -0.03125 0.890625 -0.0234375 0.734375 -0.015625 C 0.585938 -0.015625 0.46875 -0.0078125 0.375 0 L 0.375 -0.171875 C 0.570312 -0.179688 0.722656 -0.210938 0.828125 -0.265625 C 0.929688 -0.316406 1 -0.398438 1.03125 -0.515625 C 1.070312 -0.640625 1.09375 -0.8125 1.09375 -1.03125 L 1.09375 -5.328125 C 1.09375 -5.546875 1.070312 -5.707031 1.03125 -5.8125 C 1 -5.914062 0.929688 -5.988281 0.828125 -6.03125 C 0.722656 -6.070312 0.570312 -6.09375 0.375 -6.09375 L 0.375 -6.265625 C 0.46875 -6.265625 0.585938 -6.257812 0.734375 -6.25 C 0.890625 -6.25 1.046875 -6.25 1.203125 -6.25 C 1.328125 -6.25 1.445312 -6.25 1.5625 -6.25 C 1.6875 -6.257812 1.796875 -6.265625 1.890625 -6.265625 L 5.015625 -1.453125 L 5.015625 -5.25 C 5.015625 -5.46875 4.992188 -5.632812 4.953125 -5.75 C 4.921875 -5.863281 4.84375 -5.945312 4.71875 -6 C 4.601562 -6.0625 4.429688 -6.09375 4.203125 -6.09375 L 4.203125 -6.265625 C 4.316406 -6.265625 4.457031 -6.257812 4.625 -6.25 C 4.800781 -6.25 4.960938 -6.25 5.109375 -6.25 C 5.265625 -6.25 5.414062 -6.25 5.5625 -6.25 C 5.71875 -6.257812 5.84375 -6.265625 5.9375 -6.265625 Z M 5.9375 -6.265625 "/></g></g></g><path fill="#fee5ab" d="M 21.628906 22.574219 L 42.25 22.574219 L 42.25 11.175781 L 21.628906 11.175781 Z M 21.628906 22.574219 " fill-opacity="1" fill-rule="nonzero"/><path fill="#e5cf9c" d="M 41.167969 19.078125 L 35.382812 19.078125 L 35.382812 18.164062 L 35.546875 18.164062 L 35.546875 14.632812 L 41 14.632812 L 41 18.164062 L 41.167969 18.164062 L 41.167969 19.078125 M 35.613281 18.394531 L 35.613281 18.847656 L 40.933594 18.847656 L 40.933594 18.621094 L 41.070312 18.621094 L 41.070312 18.394531 L 40.769531 18.394531 L 40.769531 14.863281 L 35.78125 14.863281 L 35.78125 18.394531 L 35.613281 18.394531 " fill-opacity="1" fill-rule="nonzero"/><path fill="#feedc3" d="M 21.628906 22.570312 L 22.472656 22.570312 L 22.472656 11.6875 L 21.628906 11.6875 Z M 21.628906 22.570312 " fill-opacity="1" fill-rule="nonzero"/><path fill="#fcdb9a" d="M 21.628906 10.535156 L 21.628906 11.175781 L 42.25 11.175781 L 42.25 10.535156 L 31.9375 5.082031 L 21.628906 10.535156 " fill-opacity="1" fill-rule="nonzero"/><path fill="#999773" d="M 20.8125 23.714844 L 43.066406 23.714844 L 43.066406 22.570312 L 20.8125 22.570312 Z M 20.8125 23.714844 " fill-opacity="1" fill-rule="nonzero"/><path fill="#a9a484" d="M 43.066406 23.144531 L 41.0625 23.144531 L 41.0625 22.761719 L 43.066406 22.761719 L 43.066406 23.144531 M 40.816406 23.144531 L 37.972656 23.144531 L 37.972656 22.761719 L 40.816406 22.761719 L 40.816406 23.144531 M 37.730469 23.144531 L 26.148438 23.144531 L 26.148438 22.761719 L 37.730469 22.761719 L 37.730469 23.144531 M 25.90625 23.144531 L 23.058594 23.144531 L 23.058594 22.761719 L 25.90625 22.761719 L 25.90625 23.144531 M 22.816406 23.144531 L 20.8125 23.144531 L 20.8125 22.761719 L 22.816406 22.761719 L 22.816406 23.144531 " fill-opacity="1" fill-rule="nonzero"/><path fill="#e5cf9c" d="M 42.25 22.570312 L 41.167969 22.570312 L 41.167969 11.6875 L 21.628906 11.6875 L 21.628906 11.175781 L 42.25 11.175781 L 42.25 22.570312 " fill-opacity="1" fill-rule="nonzero"/><path fill="#e3c68c" d="M 42.25 11.175781 L 41.167969 11.175781 L 41.148438 10.882812 L 31.9375 6.019531 L 22.28125 11.175781 L 21.628906 11.175781 L 21.628906 10.976562 L 31.9375 5.527344 L 42.25 10.976562 L 42.25 11.175781 " fill-opacity="1" fill-rule="nonzero"/><path fill="#ffffff" d="M 34.289062 14.152344 L 29.585938 14.152344 L 29.585938 22.570312 L 34.289062 22.570312 L 34.289062 14.152344 " fill-opacity="1" fill-rule="nonzero"/><path fill="#f49a5d" d="M 29.90625 22.570312 L 29.90625 14.539062 L 33.972656 14.539062 L 33.972656 22.570312 L 29.90625 22.570312 " fill-opacity="1" fill-rule="nonzero"/><path fill="#feb07b" d="M 31.652344 17.054688 L 30.289062 17.054688 C 30.222656 16.988281 30.1875 16.949219 30.121094 16.882812 L 30.121094 14.910156 C 30.1875 14.84375 30.222656 14.804688 30.289062 14.738281 L 31.652344 14.738281 C 31.71875 14.804688 31.753906 14.84375 31.820312 14.910156 L 31.820312 16.882812 C 31.753906 16.949219 31.71875 16.988281 31.652344 17.054688 " fill-opacity="1" fill-rule="nonzero"/><path fill="#feb07b" d="M 33.582031 17.054688 L 32.222656 17.054688 C 32.15625 16.988281 32.117188 16.949219 32.050781 16.882812 L 32.050781 14.910156 C 32.117188 14.84375 32.15625 14.804688 32.222656 14.738281 L 33.582031 14.738281 C 33.648438 14.804688 33.6875 14.84375 33.753906 14.910156 L 33.753906 16.882812 C 33.6875 16.949219 33.648438 16.988281 33.582031 17.054688 " fill-opacity="1" fill-rule="nonzero"/><path fill="#feb07b" d="M 31.652344 19.660156 L 30.289062 19.660156 C 30.222656 19.59375 30.1875 19.554688 30.121094 19.492188 L 30.121094 17.515625 C 30.1875 17.449219 30.222656 17.410156 30.289062 17.34375 L 31.652344 17.34375 C 31.71875 17.410156 31.753906 17.449219 31.820312 17.515625 L 31.820312 19.492188 C 31.753906 19.554688 31.71875 19.59375 31.652344 19.660156 " fill-opacity="1" fill-rule="nonzero"/><path fill="#feb07b" d="M 33.582031 19.660156 L 32.222656 19.660156 C 32.15625 19.59375 32.117188 19.554688 32.050781 19.492188 L 32.050781 17.515625 C 32.117188 17.449219 32.15625 17.410156 32.222656 17.34375 L 33.582031 17.34375 C 33.648438 17.410156 33.6875 17.449219 33.753906 17.515625 L 33.753906 19.492188 C 33.6875 19.554688 33.648438 19.59375 33.582031 19.660156 " fill-opacity="1" fill-rule="nonzero"/><path fill="#feb07b" d="M 31.652344 22.230469 L 30.289062 22.230469 C 30.222656 22.164062 30.1875 22.128906 30.121094 22.0625 L 30.121094 20.085938 C 30.1875 20.019531 30.222656 19.984375 30.289062 19.917969 L 31.652344 19.917969 C 31.71875 19.984375 31.753906 20.019531 31.820312 20.085938 L 31.820312 22.0625 C 31.753906 22.128906 31.71875 22.164062 31.652344 22.230469 " fill-opacity="1" fill-rule="nonzero"/><path fill="#feb07b" d="M 33.582031 22.230469 L 32.222656 22.230469 C 32.15625 22.164062 32.117188 22.128906 32.050781 22.0625 L 32.050781 20.085938 C 32.117188 20.019531 32.15625 19.984375 32.222656 19.917969 L 33.582031 19.917969 C 33.648438 19.984375 33.6875 20.019531 33.753906 20.085938 L 33.753906 22.0625 C 33.6875 22.128906 33.648438 22.164062 33.582031 22.230469 " fill-opacity="1" fill-rule="nonzero"/><path fill="#e6e7e8" d="M 35.273438 23.332031 L 28.601562 23.332031 L 28.601562 23.714844 L 35.273438 23.714844 L 35.273438 23.332031 " fill-opacity="1" fill-rule="nonzero"/><path fill="#f1f2f2" d="M 35.273438 23.332031 L 28.601562 23.332031 L 28.601562 23.476562 L 35.273438 23.476562 L 35.273438 23.332031 " fill-opacity="1" fill-rule="nonzero"/><path fill="#e6e7e8" d="M 34.851562 22.953125 L 29.027344 22.953125 L 29.027344 23.332031 L 34.851562 23.332031 L 34.851562 22.953125 " fill-opacity="1" fill-rule="nonzero"/><path fill="#f1f2f2" d="M 34.851562 22.953125 L 29.027344 22.953125 L 29.027344 23.085938 L 34.851562 23.085938 L 34.851562 22.953125 " fill-opacity="1" fill-rule="nonzero"/><path fill="#e6e7e8" d="M 34.398438 22.570312 L 29.480469 22.570312 L 29.480469 22.953125 L 34.398438 22.953125 L 34.398438 22.570312 " fill-opacity="1" fill-rule="nonzero"/><path fill="#f1f2f2" d="M 34.398438 22.570312 L 29.480469 22.570312 L 29.480469 22.714844 L 34.398438 22.714844 L 34.398438 22.570312 " fill-opacity="1" fill-rule="nonzero"/><path fill="#f46c42" d="M 27.285156 6.652344 L 27.285156 5.082031 L 23.816406 5.082031 L 23.816406 8.484375 L 27.285156 6.652344 " fill-opacity="1" fill-rule="nonzero"/><g clip-path="url(#87ab4c94b0)"><path fill="#999773" d="M 31.9375 4.191406 L 20.367188 10.308594 L 20.367188 11.621094 L 20.410156 11.621094 L 31.9375 5.527344 L 43.464844 11.621094 L 43.511719 11.621094 L 43.511719 10.308594 L 31.9375 4.191406 " fill-opacity="1" fill-rule="nonzero"/></g><g clip-path="url(#151e1283cd)"><path fill="#a8a588" d="M 31.9375 4.191406 L 20.367188 10.308594 L 20.367188 10.96875 L 31.9375 4.851562 L 43.511719 10.96875 L 43.511719 10.308594 L 31.9375 4.191406 " fill-opacity="1" fill-rule="nonzero"/></g><path fill="#e6e7e8" d="M 27.285156 6.652344 L 27.285156 5.082031 L 23.816406 5.082031 L 27.285156 5.082031 L 27.285156 6.652344 " fill-opacity="1" fill-rule="nonzero"/><path fill="#dc623c" d="M 26.714844 6.953125 L 26.714844 5.742188 L 23.816406 5.742188 L 23.816406 5.082031 L 27.285156 5.082031 L 27.285156 6.652344 L 26.714844 6.953125 " fill-opacity="1" fill-rule="nonzero"/><path fill="#8a8969" d="M 26.714844 6.953125 L 27.285156 6.652344 L 26.714844 6.953125 " fill-opacity="1" fill-rule="nonzero"/><path fill="#98957c" d="M 26.714844 6.953125 L 27.285156 6.652344 L 26.714844 6.953125 " fill-opacity="1" fill-rule="nonzero"/><g clip-path="url(#8f446d64a4)"><path fill="#f46c42" d="M 27.753906 5.445312 L 23.367188 5.445312 C 23.304688 5.445312 23.253906 5.394531 23.253906 5.332031 L 23.253906 4.808594 C 23.253906 4.746094 23.304688 4.695312 23.367188 4.695312 L 27.753906 4.695312 C 27.816406 4.695312 27.867188 4.746094 27.867188 4.808594 L 27.867188 5.332031 C 27.867188 5.394531 27.816406 5.445312 27.753906 5.445312 " fill-opacity="1" fill-rule="nonzero"/></g><path fill="#e5cf9c" d="M 28.699219 19.078125 L 22.914062 19.078125 L 22.914062 18.164062 L 23.078125 18.164062 L 23.078125 14.632812 L 28.535156 14.632812 L 28.535156 18.164062 L 28.699219 18.164062 L 28.699219 19.078125 M 23.472656 17.800781 L 23.472656 18.316406 L 28.140625 18.316406 L 28.140625 17.800781 C 28.152344 17.800781 28.164062 17.800781 28.171875 17.800781 C 28.199219 17.800781 28.222656 17.800781 28.246094 17.800781 L 28.246094 14.902344 L 26.539062 14.902344 C 26.542969 14.925781 26.546875 14.953125 26.550781 14.980469 L 25.0625 14.980469 C 25.066406 14.953125 25.070312 14.925781 25.074219 14.902344 L 23.363281 14.902344 L 23.363281 17.800781 C 23.390625 17.800781 23.414062 17.800781 23.441406 17.800781 C 23.449219 17.800781 23.460938 17.800781 23.472656 17.800781 " fill-opacity="1" fill-rule="nonzero"/><path fill="#5b4c49" d="M 35.9375 18.316406 L 40.609375 18.316406 L 40.609375 14.980469 L 35.9375 14.980469 Z M 35.9375 18.316406 " fill-opacity="1" fill-rule="nonzero"/><path fill="#82716d" d="M 36.605469 18.011719 L 36.175781 18.011719 L 36.175781 17.789062 C 36.335938 17.773438 36.464844 17.734375 36.492188 17.660156 C 36.515625 17.609375 36.523438 17.496094 36.523438 17.347656 L 38.070312 15.414062 L 38.070312 16.183594 L 36.605469 18.011719 " fill-opacity="1" fill-rule="nonzero"/><path fill="#82716d" d="M 36.488281 16.574219 C 36.476562 16.410156 36.460938 16.253906 36.449219 16.128906 L 36.453125 16.125 C 37.105469 15.878906 37.371094 15.484375 37.476562 15.179688 L 37.605469 15.179688 L 36.488281 16.574219 " fill-opacity="1" fill-rule="nonzero"/><path fill="#82716d" d="M 39.015625 18.011719 L 38.585938 18.011719 L 38.585938 17.777344 L 39.957031 16.070312 C 40 16.089844 40.046875 16.109375 40.097656 16.125 C 40.082031 16.285156 40.066406 16.5 40.050781 16.722656 L 39.015625 18.011719 " fill-opacity="1" fill-rule="nonzero"/><path fill="#82716d" d="M 38.585938 16.960938 L 38.585938 16.46875 L 39.296875 15.582031 C 39.355469 15.65625 39.429688 15.730469 39.515625 15.800781 L 38.585938 16.960938 " fill-opacity="1" fill-rule="nonzero"/><path fill="#fc8465" d="M 35.832031 17.800781 C 36.121094 17.808594 36.441406 17.785156 36.492188 17.660156 C 36.585938 17.429688 36.425781 15.867188 36.425781 15.867188 C 36.390625 15.386719 36.304688 15.089844 36.203125 14.902344 L 35.832031 14.902344 L 35.832031 17.800781 " fill-opacity="1" fill-rule="nonzero"/><path fill="#fc7256" d="M 37.539062 14.902344 L 35.832031 14.902344 L 35.832031 16.289062 C 37.257812 16.050781 37.5 15.246094 37.539062 14.902344 " fill-opacity="1" fill-rule="nonzero"/><path fill="#ee7d60" d="M 36.316406 17.714844 C 36.316406 17.714844 36.4375 17.46875 36.421875 17.164062 C 36.410156 16.859375 36.40625 16.289062 36.40625 16.289062 C 36.40625 16.289062 36.511719 17.390625 36.457031 17.539062 C 36.402344 17.691406 36.316406 17.714844 36.316406 17.714844 " fill-opacity="1" fill-rule="nonzero"/><path fill="#ee6c52" d="M 36.144531 16.128906 C 36.144531 16.128906 36.691406 15.878906 36.949219 15.652344 C 37.207031 15.429688 37.398438 15.179688 37.398438 15.179688 C 37.398438 15.179688 37.226562 15.59375 36.855469 15.824219 C 36.480469 16.058594 36.144531 16.128906 36.144531 16.128906 " fill-opacity="1" fill-rule="nonzero"/><path fill="#ee6c52" d="M 36.230469 15.761719 C 36.230469 15.761719 36.523438 15.625 36.660156 15.503906 C 36.800781 15.382812 36.90625 15.25 36.90625 15.25 C 36.90625 15.25 36.8125 15.472656 36.609375 15.597656 C 36.410156 15.722656 36.230469 15.761719 36.230469 15.761719 " fill-opacity="1" fill-rule="nonzero"/><path fill="#fc8465" d="M 40.714844 17.800781 C 40.425781 17.808594 40.105469 17.785156 40.054688 17.660156 C 39.960938 17.429688 40.121094 15.867188 40.121094 15.867188 C 40.15625 15.386719 40.242188 15.089844 40.34375 14.902344 L 40.714844 14.902344 L 40.714844 17.800781 " fill-opacity="1" fill-rule="nonzero"/><path fill="#fc7256" d="M 39.007812 14.902344 L 40.714844 14.902344 L 40.714844 16.289062 C 39.289062 16.050781 39.046875 15.246094 39.007812 14.902344 " fill-opacity="1" fill-rule="nonzero"/><path fill="#ee7d60" d="M 40.230469 17.714844 C 40.230469 17.714844 40.144531 17.691406 40.089844 17.539062 C 40.035156 17.390625 40.140625 16.289062 40.140625 16.289062 C 40.140625 16.289062 40.140625 16.859375 40.125 17.164062 C 40.109375 17.46875 40.230469 17.714844 40.230469 17.714844 " fill-opacity="1" fill-rule="nonzero"/><path fill="#ee6c52" d="M 40.402344 16.128906 C 40.402344 16.128906 40.066406 16.058594 39.691406 15.824219 C 39.320312 15.59375 39.148438 15.179688 39.148438 15.179688 C 39.148438 15.179688 39.339844 15.429688 39.597656 15.652344 C 39.855469 15.878906 40.402344 16.128906 40.402344 16.128906 " fill-opacity="1" fill-rule="nonzero"/><path fill="#ee6c52" d="M 40.316406 15.761719 C 40.316406 15.761719 40.136719 15.722656 39.9375 15.597656 C 39.734375 15.472656 39.640625 15.25 39.640625 15.25 C 39.640625 15.25 39.746094 15.382812 39.886719 15.503906 C 40.023438 15.625 40.316406 15.761719 40.316406 15.761719 " fill-opacity="1" fill-rule="nonzero"/><path fill="#f1f2f2" d="M 40.480469 18.171875 L 38.410156 18.171875 L 38.410156 15.128906 L 40.480469 15.128906 L 40.480469 18.171875 M 38.136719 18.171875 L 36.070312 18.171875 L 36.070312 15.128906 L 38.136719 15.128906 L 38.136719 18.171875 M 35.78125 14.863281 L 35.78125 18.433594 L 40.769531 18.433594 L 40.769531 14.863281 L 35.78125 14.863281 " fill-opacity="1" fill-rule="nonzero"/><path fill="#999773" d="M 35.613281 18.847656 L 40.933594 18.847656 L 40.933594 18.394531 L 35.613281 18.394531 Z M 35.613281 18.847656 " fill-opacity="1" fill-rule="nonzero"/><path fill="#5b4c49" d="M 23.472656 18.316406 L 28.140625 18.316406 L 28.140625 14.980469 L 23.472656 14.980469 Z M 23.472656 18.316406 " fill-opacity="1" fill-rule="nonzero"/><path fill="#82716d" d="M 24.140625 18.011719 L 23.710938 18.011719 L 23.710938 17.789062 C 23.871094 17.773438 23.996094 17.734375 24.027344 17.660156 C 24.046875 17.609375 24.054688 17.496094 24.054688 17.347656 L 25.605469 15.414062 L 25.605469 16.183594 L 24.140625 18.011719 " fill-opacity="1" fill-rule="nonzero"/><path fill="#82716d" d="M 24.019531 16.574219 C 24.007812 16.410156 23.992188 16.253906 23.984375 16.128906 L 23.984375 16.125 C 24.636719 15.878906 24.902344 15.484375 25.007812 15.179688 L 25.140625 15.179688 L 24.019531 16.574219 " fill-opacity="1" fill-rule="nonzero"/><path fill="#82716d" d="M 26.546875 18.011719 L 26.121094 18.011719 L 26.121094 17.777344 L 27.488281 16.070312 C 27.535156 16.089844 27.582031 16.109375 27.628906 16.125 C 27.617188 16.285156 27.597656 16.5 27.582031 16.722656 L 26.546875 18.011719 " fill-opacity="1" fill-rule="nonzero"/><path fill="#82716d" d="M 26.121094 16.960938 L 26.121094 16.46875 L 26.828125 15.582031 C 26.890625 15.65625 26.960938 15.730469 27.050781 15.800781 L 26.121094 16.960938 " fill-opacity="1" fill-rule="nonzero"/><path fill="#fc8465" d="M 23.363281 17.800781 C 23.65625 17.808594 23.976562 17.785156 24.027344 17.660156 C 24.121094 17.429688 23.957031 15.867188 23.957031 15.867188 C 23.925781 15.386719 23.835938 15.089844 23.734375 14.902344 L 23.363281 14.902344 L 23.363281 17.800781 " fill-opacity="1" fill-rule="nonzero"/><path fill="#fc7256" d="M 25.074219 14.902344 L 23.363281 14.902344 L 23.363281 16.289062 C 24.789062 16.050781 25.035156 15.246094 25.074219 14.902344 " fill-opacity="1" fill-rule="nonzero"/><path fill="#ee7d60" d="M 23.851562 17.714844 C 23.851562 17.714844 23.972656 17.46875 23.957031 17.164062 C 23.941406 16.859375 23.9375 16.289062 23.9375 16.289062 C 23.9375 16.289062 24.042969 17.390625 23.992188 17.539062 C 23.9375 17.691406 23.851562 17.714844 23.851562 17.714844 " fill-opacity="1" fill-rule="nonzero"/><path fill="#ee6c52" d="M 23.679688 16.128906 C 23.679688 16.128906 24.222656 15.878906 24.480469 15.652344 C 24.738281 15.429688 24.933594 15.179688 24.933594 15.179688 C 24.933594 15.179688 24.761719 15.59375 24.386719 15.824219 C 24.011719 16.058594 23.679688 16.128906 23.679688 16.128906 " fill-opacity="1" fill-rule="nonzero"/><path fill="#ee6c52" d="M 23.761719 15.761719 C 23.761719 15.761719 24.054688 15.625 24.195312 15.503906 C 24.332031 15.382812 24.4375 15.25 24.4375 15.25 C 24.4375 15.25 24.34375 15.472656 24.144531 15.597656 C 23.941406 15.722656 23.761719 15.761719 23.761719 15.761719 " fill-opacity="1" fill-rule="nonzero"/><path fill="#fc8465" d="M 28.246094 17.800781 C 27.957031 17.808594 27.636719 17.785156 27.585938 17.660156 C 27.492188 17.429688 27.65625 15.867188 27.65625 15.867188 C 27.6875 15.386719 27.777344 15.089844 27.878906 14.902344 L 28.246094 14.902344 L 28.246094 17.800781 " fill-opacity="1" fill-rule="nonzero"/><path fill="#fc7256" d="M 26.539062 14.902344 L 28.246094 14.902344 L 28.246094 16.289062 C 26.824219 16.050781 26.578125 15.246094 26.539062 14.902344 " fill-opacity="1" fill-rule="nonzero"/><path fill="#ee7d60" d="M 27.761719 17.714844 C 27.761719 17.714844 27.675781 17.691406 27.621094 17.539062 C 27.566406 17.390625 27.671875 16.289062 27.671875 16.289062 C 27.671875 16.289062 27.671875 16.859375 27.65625 17.164062 C 27.640625 17.46875 27.761719 17.714844 27.761719 17.714844 " fill-opacity="1" fill-rule="nonzero"/><path fill="#ee6c52" d="M 27.933594 16.128906 C 27.933594 16.128906 27.597656 16.058594 27.226562 15.824219 C 26.851562 15.59375 26.679688 15.179688 26.679688 15.179688 C 26.679688 15.179688 26.875 15.429688 27.132812 15.652344 C 27.390625 15.878906 27.933594 16.128906 27.933594 16.128906 " fill-opacity="1" fill-rule="nonzero"/><path fill="#ee6c52" d="M 27.851562 15.761719 C 27.851562 15.761719 27.667969 15.722656 27.46875 15.597656 C 27.265625 15.472656 27.175781 15.25 27.175781 15.25 C 27.175781 15.25 27.277344 15.382812 27.417969 15.503906 C 27.554688 15.625 27.851562 15.761719 27.851562 15.761719 " fill-opacity="1" fill-rule="nonzero"/><path fill="#f1f2f2" d="M 28.011719 18.171875 L 25.945312 18.171875 L 25.945312 15.128906 L 28.011719 15.128906 Z M 25.671875 18.171875 L 23.601562 18.171875 L 23.601562 15.128906 L 25.671875 15.128906 Z M 23.3125 14.863281 L 23.3125 18.433594 L 28.300781 18.433594 L 28.300781 14.863281 L 23.3125 14.863281 " fill-opacity="1" fill-rule="nonzero"/><path fill="#999773" d="M 28.464844 18.847656 L 23.148438 18.847656 L 23.148438 18.394531 L 28.464844 18.394531 L 28.464844 18.847656 " fill-opacity="1" fill-rule="nonzero"/><path fill="#f3e7cd" d="M 40.933594 18.621094 L 41.070312 18.621094 L 41.070312 18.394531 L 40.933594 18.394531 Z M 40.933594 18.621094 " fill-opacity="1" fill-rule="nonzero"/><path fill="#cfccb9" d="M 35.75 18.621094 L 40.933594 18.621094 L 40.933594 18.394531 L 35.75 18.394531 Z M 35.75 18.621094 " fill-opacity="1" fill-rule="nonzero"/><path fill="#e3c68c" d="M 31.9375 10.882812 C 30.945312 10.882812 30.140625 10.078125 30.140625 9.089844 C 30.140625 8.097656 30.945312 7.296875 31.9375 7.296875 C 32.933594 7.296875 33.738281 8.097656 33.738281 9.089844 C 33.738281 10.078125 32.933594 10.882812 31.9375 10.882812 " fill-opacity="1" fill-rule="nonzero"/><path fill="#ffffff" d="M 33.589844 9.089844 C 33.589844 9.996094 32.851562 10.734375 31.9375 10.734375 C 31.027344 10.734375 30.289062 9.996094 30.289062 9.089844 C 30.289062 8.179688 31.027344 7.445312 31.9375 7.445312 C 32.851562 7.445312 33.589844 8.179688 33.589844 9.089844 " fill-opacity="1" fill-rule="nonzero"/><path fill="#5b4c49" d="M 33.253906 9.089844 C 33.253906 9.8125 32.667969 10.402344 31.9375 10.402344 C 31.210938 10.402344 30.621094 9.8125 30.621094 9.089844 C 30.621094 8.363281 31.210938 7.777344 31.9375 7.777344 C 32.667969 7.777344 33.253906 8.363281 33.253906 9.089844 " fill-opacity="1" fill-rule="nonzero"/><path fill="#ffffff" d="M 32.105469 7.789062 C 32.050781 7.78125 31.996094 7.777344 31.9375 7.777344 C 31.882812 7.777344 31.828125 7.78125 31.773438 7.789062 L 31.773438 8.925781 L 30.632812 8.925781 C 30.628906 8.976562 30.621094 9.03125 30.621094 9.089844 C 30.621094 9.144531 30.628906 9.199219 30.632812 9.253906 L 31.773438 9.253906 L 31.773438 10.390625 C 31.828125 10.398438 31.882812 10.402344 31.9375 10.402344 C 31.996094 10.402344 32.050781 10.398438 32.105469 10.390625 L 32.105469 9.253906 L 33.242188 9.253906 C 33.25 9.199219 33.253906 9.144531 33.253906 9.089844 C 33.253906 9.03125 33.25 8.976562 33.242188 8.925781 L 32.105469 8.925781 L 32.105469 7.789062 " fill-opacity="1" fill-rule="nonzero"/><path fill="#feeabc" d="M 24.460938 20.121094 L 23.0625 20.121094 C 23.023438 20.121094 22.996094 20.089844 22.996094 20.050781 L 22.996094 19.492188 C 22.996094 19.457031 23.023438 19.425781 23.0625 19.425781 L 24.460938 19.425781 C 24.5 19.425781 24.53125 19.457031 24.53125 19.492188 L 24.53125 20.050781 C 24.53125 20.089844 24.5 20.121094 24.460938 20.121094 " fill-opacity="1" fill-rule="nonzero"/><path fill="#feeabc" d="M 28.714844 21.421875 L 27.3125 21.421875 C 27.277344 21.421875 27.246094 21.390625 27.246094 21.355469 L 27.246094 20.792969 C 27.246094 20.757812 27.277344 20.726562 27.3125 20.726562 L 28.714844 20.726562 C 28.753906 20.726562 28.78125 20.757812 28.78125 20.792969 L 28.78125 21.355469 C 28.78125 21.390625 28.753906 21.421875 28.714844 21.421875 " fill-opacity="1" fill-rule="nonzero"/><path fill="#fde2ae" d="M 36.53125 10.402344 L 35.132812 10.402344 C 35.09375 10.402344 35.0625 10.371094 35.0625 10.335938 L 35.0625 9.773438 C 35.0625 9.738281 35.09375 9.707031 35.132812 9.707031 L 36.53125 9.707031 C 36.570312 9.707031 36.601562 9.738281 36.601562 9.773438 L 36.601562 10.335938 C 36.601562 10.371094 36.570312 10.402344 36.53125 10.402344 " fill-opacity="1" fill-rule="nonzero"/><path fill="#feeabc" d="M 33.957031 13.050781 L 32.554688 13.050781 C 32.515625 13.050781 32.488281 13.019531 32.488281 12.980469 L 32.488281 12.421875 C 32.488281 12.382812 32.515625 12.355469 32.554688 12.355469 L 33.957031 12.355469 C 33.992188 12.355469 34.023438 12.382812 34.023438 12.421875 L 34.023438 12.980469 C 34.023438 13.019531 33.992188 13.050781 33.957031 13.050781 " fill-opacity="1" fill-rule="nonzero"/><path fill="#ead49f" d="M 27.695312 13.601562 L 26.292969 13.601562 C 26.253906 13.601562 26.226562 13.574219 26.226562 13.535156 L 26.226562 12.976562 C 26.226562 12.9375 26.253906 12.910156 26.292969 12.910156 L 27.695312 12.910156 C 27.730469 12.910156 27.761719 12.9375 27.761719 12.976562 L 27.761719 13.535156 C 27.761719 13.574219 27.730469 13.601562 27.695312 13.601562 " fill-opacity="1" fill-rule="nonzero"/><path fill="#e1643d" d="M 25.8125 7.042969 L 24.414062 7.042969 C 24.375 7.042969 24.34375 7.011719 24.34375 6.972656 L 24.34375 6.414062 C 24.34375 6.375 24.375 6.347656 24.414062 6.347656 L 25.8125 6.347656 C 25.851562 6.347656 25.882812 6.375 25.882812 6.414062 L 25.882812 6.972656 C 25.882812 7.011719 25.851562 7.042969 25.8125 7.042969 " fill-opacity="1" fill-rule="nonzero"/><path fill="#ead49f" d="M 38.101562 21.53125 L 36.699219 21.53125 C 36.664062 21.53125 36.632812 21.5 36.632812 21.464844 L 36.632812 20.902344 C 36.632812 20.867188 36.664062 20.835938 36.699219 20.835938 L 38.101562 20.835938 C 38.136719 20.835938 38.167969 20.867188 38.167969 20.902344 L 38.167969 21.464844 C 38.167969 21.5 38.136719 21.53125 38.101562 21.53125 " fill-opacity="1" fill-rule="nonzero"/><path fill="#ead49f" d="M 39.847656 12.910156 L 38.445312 12.910156 C 38.410156 12.910156 38.378906 12.878906 38.378906 12.839844 L 38.378906 12.28125 C 38.378906 12.242188 38.410156 12.214844 38.445312 12.214844 L 39.847656 12.214844 C 39.886719 12.214844 39.914062 12.242188 39.914062 12.28125 L 39.914062 12.839844 C 39.914062 12.878906 39.886719 12.910156 39.847656 12.910156 " fill-opacity="1" fill-rule="nonzero"/><g clip-path="url(#6da7513ff8)"><path fill="#ba8a1e" d="M 40.816406 24.152344 L 41.0625 24.152344 L 41.0625 21.984375 L 40.816406 21.984375 Z M 40.816406 24.152344 " fill-opacity="1" fill-rule="nonzero"/><path fill="#987219" d="M 41.0625 24.152344 L 40.957031 24.152344 L 40.957031 21.984375 L 41.0625 21.984375 L 41.0625 24.152344 " fill-opacity="1" fill-rule="nonzero"/></g><path fill="#91c422" d="M 42.222656 21.484375 C 42.222656 22.191406 41.648438 22.765625 40.9375 22.765625 C 40.230469 22.765625 39.65625 22.191406 39.65625 21.484375 C 39.65625 20.78125 40.230469 20.207031 40.9375 20.207031 C 41.648438 20.207031 42.222656 20.78125 42.222656 21.484375 " fill-opacity="1" fill-rule="nonzero"/><path fill="#8ab515" d="M 41.210938 20.234375 C 41.585938 20.460938 41.832031 20.867188 41.832031 21.332031 C 41.832031 22.039062 41.261719 22.609375 40.550781 22.609375 C 40.457031 22.609375 40.367188 22.597656 40.277344 22.582031 C 40.472656 22.695312 40.695312 22.765625 40.9375 22.765625 C 41.648438 22.765625 42.222656 22.191406 42.222656 21.484375 C 42.222656 20.871094 41.789062 20.359375 41.210938 20.234375 " fill-opacity="1" fill-rule="nonzero"/><g clip-path="url(#130c8b4bd0)"><path fill="#ba8a1e" d="M 37.730469 24.152344 L 37.972656 24.152344 L 37.972656 21.984375 L 37.730469 21.984375 Z M 37.730469 24.152344 " fill-opacity="1" fill-rule="nonzero"/><path fill="#987219" d="M 37.972656 24.152344 L 37.867188 24.152344 L 37.867188 21.984375 L 37.972656 21.984375 L 37.972656 24.152344 " fill-opacity="1" fill-rule="nonzero"/></g><path fill="#91c422" d="M 39.132812 21.484375 C 39.132812 22.191406 38.5625 22.765625 37.851562 22.765625 C 37.144531 22.765625 36.570312 22.191406 36.570312 21.484375 C 36.570312 20.78125 37.144531 20.207031 37.851562 20.207031 C 38.5625 20.207031 39.132812 20.78125 39.132812 21.484375 " fill-opacity="1" fill-rule="nonzero"/><path fill="#8ab515" d="M 38.125 20.234375 C 38.496094 20.460938 38.746094 20.867188 38.746094 21.332031 C 38.746094 22.039062 38.171875 22.609375 37.464844 22.609375 C 37.371094 22.609375 37.28125 22.597656 37.191406 22.582031 C 37.382812 22.695312 37.609375 22.765625 37.851562 22.765625 C 38.5625 22.765625 39.132812 22.191406 39.132812 21.484375 C 39.132812 20.871094 38.703125 20.359375 38.125 20.234375 " fill-opacity="1" fill-rule="nonzero"/><g clip-path="url(#14fcb65ddd)"><path fill="#ba8a1e" d="M 25.90625 24.152344 L 26.148438 24.152344 L 26.148438 21.984375 L 25.90625 21.984375 Z M 25.90625 24.152344 " fill-opacity="1" fill-rule="nonzero"/></g><g clip-path="url(#79d5eaac8d)"><path fill="#987219" d="M 26.148438 24.152344 L 26.042969 24.152344 L 26.042969 21.984375 L 26.148438 21.984375 L 26.148438 24.152344 " fill-opacity="1" fill-rule="nonzero"/></g><path fill="#91c422" d="M 27.308594 21.484375 C 27.308594 22.191406 26.734375 22.765625 26.027344 22.765625 C 25.316406 22.765625 24.742188 22.191406 24.742188 21.484375 C 24.742188 20.78125 25.316406 20.207031 26.027344 20.207031 C 26.734375 20.207031 27.308594 20.78125 27.308594 21.484375 " fill-opacity="1" fill-rule="nonzero"/><path fill="#8ab515" d="M 26.300781 20.234375 C 26.671875 20.460938 26.921875 20.867188 26.921875 21.332031 C 26.921875 22.039062 26.347656 22.609375 25.636719 22.609375 C 25.542969 22.609375 25.453125 22.597656 25.363281 22.582031 C 25.558594 22.695312 25.785156 22.765625 26.027344 22.765625 C 26.734375 22.765625 27.308594 22.191406 27.308594 21.484375 C 27.308594 20.871094 26.875 20.359375 26.300781 20.234375 " fill-opacity="1" fill-rule="nonzero"/><g clip-path="url(#55555a988d)"><path fill="#ba8a1e" d="M 22.816406 24.152344 L 23.058594 24.152344 L 23.058594 21.984375 L 22.816406 21.984375 Z M 22.816406 24.152344 " fill-opacity="1" fill-rule="nonzero"/><path fill="#987219" d="M 23.058594 24.152344 L 22.957031 24.152344 L 22.957031 21.984375 L 23.058594 21.984375 L 23.058594 24.152344 " fill-opacity="1" fill-rule="nonzero"/></g><path fill="#91c422" d="M 24.222656 21.484375 C 24.222656 22.191406 23.648438 22.765625 22.9375 22.765625 C 22.230469 22.765625 21.65625 22.191406 21.65625 21.484375 C 21.65625 20.78125 22.230469 20.207031 22.9375 20.207031 C 23.648438 20.207031 24.222656 20.78125 24.222656 21.484375 " fill-opacity="1" fill-rule="nonzero"/><path fill="#8ab515" d="M 23.210938 20.234375 C 23.585938 20.460938 23.832031 20.867188 23.832031 21.332031 C 23.832031 22.039062 23.257812 22.609375 22.550781 22.609375 C 22.457031 22.609375 22.367188 22.597656 22.277344 22.582031 C 22.472656 22.695312 22.695312 22.765625 22.9375 22.765625 C 23.648438 22.765625 24.222656 22.191406 24.222656 21.484375 C 24.222656 20.871094 23.789062 20.359375 23.210938 20.234375 " fill-opacity="1" fill-rule="nonzero"/><g clip-path="url(#b7f8dfbaca)"><path fill="#91c422" d="M 44.992188 24.253906 L 18.886719 24.253906 L 18.886719 23.714844 L 44.992188 23.714844 L 44.992188 24.253906 " fill-opacity="1" fill-rule="nonzero"/></g><g clip-path="url(#3cbda064de)"><path fill="#82a818" d="M 44.992188 24.511719 L 18.886719 24.511719 L 18.886719 24.253906 L 44.992188 24.253906 L 44.992188 24.511719 " fill-opacity="1" fill-rule="nonzero"/></g><path fill="#a6d12f" d="M 37.554688 21.226562 C 37.371094 21.382812 37.125 21.394531 37.003906 21.253906 C 36.882812 21.113281 36.929688 20.871094 37.113281 20.714844 C 37.292969 20.558594 37.542969 20.546875 37.664062 20.6875 C 37.785156 20.828125 37.738281 21.070312 37.554688 21.226562 " fill-opacity="1" fill-rule="nonzero"/><path fill="#a6d12f" d="M 25.691406 21.226562 C 25.507812 21.382812 25.261719 21.394531 25.140625 21.253906 C 25.019531 21.113281 25.066406 20.871094 25.25 20.714844 C 25.433594 20.558594 25.679688 20.546875 25.800781 20.6875 C 25.921875 20.828125 25.875 21.070312 25.691406 21.226562 " fill-opacity="1" fill-rule="nonzero"/><path fill="#a6d12f" d="M 22.691406 21.226562 C 22.511719 21.382812 22.265625 21.394531 22.140625 21.253906 C 22.019531 21.113281 22.070312 20.871094 22.25 20.714844 C 22.433594 20.558594 22.679688 20.546875 22.800781 20.6875 C 22.925781 20.828125 22.875 21.070312 22.691406 21.226562 " fill-opacity="1" fill-rule="nonzero"/><path fill="#a6d12f" d="M 40.640625 21.226562 C 40.457031 21.382812 40.210938 21.394531 40.089844 21.253906 C 39.96875 21.113281 40.015625 20.871094 40.199219 20.714844 C 40.382812 20.558594 40.628906 20.546875 40.75 20.6875 C 40.871094 20.828125 40.824219 21.070312 40.640625 21.226562 " fill-opacity="1" fill-rule="nonzero"/></svg>